<svg width="25" height="25" viewBox="0 0 25 25" fill="none" xmlns="http://www.w3.org/2000/svg">
<path d="M24.375 10.625H21.875V8.125C21.875 7.78125 21.5938 7.5 21.25 7.5H20C19.6562 7.5 19.375 7.78125 19.375 8.125V10.625H16.875C16.5312 10.625 16.25 10.9062 16.25 11.25V12.5C16.25 12.8438 16.5312 13.125 16.875 13.125H19.375V15.625C19.375 15.9688 19.6562 16.25 20 16.25H21.25C21.5938 16.25 21.875 15.9688 21.875 15.625V13.125H24.375C24.7188 13.125 25 12.8438 25 12.5V11.25C25 10.9062 24.7188 10.625 24.375 10.625ZM8.75 12.5C11.5117 12.5 13.75 10.2617 13.75 7.5C13.75 4.73828 11.5117 2.5 8.75 2.5C5.98828 2.5 3.75 4.73828 3.75 7.5C3.75 10.2617 5.98828 12.5 8.75 12.5ZM12.25 13.75H11.5977C10.7305 14.1484 9.76562 14.375 8.75 14.375C7.73438 14.375 6.77344 14.1484 5.90234 13.75H5.25C2.35156 13.75 0 16.1016 0 19V20.625C0 21.6602 0.839844 22.5 1.875 22.5H15.625C16.6602 22.5 17.5 21.6602 17.5 20.625V19C17.5 16.1016 15.1484 13.75 12.25 13.75Z" fill="#FEFEFE"/>
</svg>
