<svg width="20" height="20" viewBox="0 0 20 20" fill="none" xmlns="http://www.w3.org/2000/svg">
<path d="M18.75 6.28906V5.45703L17.6367 5.11328L17.5508 4.70703L18.3359 3.89844L17.9297 3.14062L16.7969 3.43359L16.5156 3.14062L16.8086 2.03906L16.0625 1.58594L15.2305 2.40625L14.8125 2.28125L14.5391 1.25H13.6562L13.4141 2.28125L12.9414 2.40625L12.1719 1.58594L11.4141 2.01562L11.7305 3.09766L11.4141 3.42578L10.3008 3.13281L9.87109 3.87891L10.6797 4.69922L10.5664 5.10547L9.45312 5.41016L9.44141 6.25781L10.5664 6.55078L10.6602 7.02344L9.875 7.80078L10.2812 8.52344L11.4375 8.23047L11.7188 8.56641L11.4023 9.61719L12.1797 10.0703L12.9375 9.27344L13.3906 9.38672L13.6523 10.5L14.5352 10.5117L14.7969 9.38672L15.25 9.25L16.0586 10.0938L16.8555 9.62109L16.5117 8.52734L16.8164 8.21094L17.9414 8.55469L18.3438 7.76953L17.5273 7.03516L17.6133 6.5625L18.75 6.28906ZM14.0938 8.05469C12.8711 8.05469 11.875 7.0625 11.875 5.83594C11.875 4.60937 12.8672 3.61719 14.0938 3.61719C15.3203 3.61719 16.3125 4.60937 16.3125 5.83594C16.3125 7.06641 15.3203 8.05469 14.0938 8.05469ZM16.918 8.69531L18.75 9.26172V10.8203L16.5977 11.3438L16.4375 12.2305L17.957 13.6094L17.207 15.0898L15.0977 14.4375L14.5273 15.0312L15.1797 17.082L13.6836 17.9688L12.1641 16.3867L11.3164 16.6445L10.8242 18.7539L9.16797 18.7344L8.67578 16.6406L7.82812 16.4219L6.40625 17.9219L4.94531 17.0742L5.53906 15.1016L5.00391 14.4727L2.83594 15.0234L2.06641 13.6641L3.54688 12.2031L3.35938 11.3125L1.25 10.7617L1.26953 9.16406L3.35938 8.58984L3.58203 7.82031L2.0625 6.28125L2.87109 4.88281L4.96484 5.43359L5.55859 4.82031L4.96484 2.78906L6.38672 1.98047L7.82422 3.51953L8.71094 3.28125L9.16406 1.25H10.8203L11.2734 3.04297L10.3906 2.8125L10.1445 2.74609L10.0156 2.96875L9.58594 3.71484L9.45703 3.93359L9.63672 4.11328L10.3086 4.79297L10.2969 4.83203L9.36719 5.08594L9.125 5.15234L9.12109 5.40234L9.11328 5.90625C7.25781 6.3125 5.85938 7.96875 5.85938 9.94922C5.85938 12.2266 7.70703 14.0781 9.98828 14.0781C11.9609 14.0781 13.6094 12.6953 14.0195 10.8438L14.5352 10.8516L14.8047 10.8555L14.8672 10.5938L15.0859 9.65625L15.1602 9.63281L15.8281 10.3281L16.0117 10.5195L16.2383 10.3867L17.0352 9.91406L17.2617 9.77734L17.1836 9.52344L16.918 8.69531Z" fill="white"/>
</svg>
